# xmcd
#
# Track frame offsets:
#	150
#	13791
#	29308
#	43842
#	59285
#	73002
#	87676
#	103897
#	117246
#	132907
#
# Disc length: 1923 seconds
#
# Revision: 0
# Processed by: cddbd v1.5.2PL0 Copyright (c) Steve Scherf et al.
# Submitted via: EasyCDDAExtractor 8.2.3.1
#
DISCID=9007810a
DTITLE=Andi and The Browns - Loving Country
DYEAR=1990
DGENRE=Country
TTITLE0=What Part Of 'No' Don't You Understand
TTITLE1=Lighter Shade Of Blue
TTITLE2=Gently Hold Me
TTITLE3=You Sure Picked A Good Day To Love Me
TTITLE4=It Ain't That Far Back To Kentucky
TTITLE5=You've Been Lyin' To Me (About Lyin' With Her)
TTITLE6=Shows You What I Know
TTITLE7=Labor Of Love
TTITLE8=Dreamin' That Dream Again
TTITLE9=I Don't Wanna Be The One
EXTD=
EXTT0=
EXTT1=
EXTT2=
EXTT3=
EXTT4=
EXTT5=
EXTT6=
EXTT7=
EXTT8=
EXTT9=
PLAYORDER=
